<svg width="107" height="109" viewBox="0 0 107 109" fill="none" xmlns="http://www.w3.org/2000/svg">
<g clip-path="url(#clip0)">
<path d="M8.4886 101.842C12.0135 105.691 19.6109 103.882 29.0016 98.6394C20.459 92.8381 13.8068 84.4644 10.1318 74.6182C4.57504 85.9813 3.1174 95.9605 8.4886 101.842ZM97.7053 27.8533C102.016 19.3199 103.342 12.3921 100.055 8.77294C95.0109 3.22891 85.5318 4.524 74.4713 9.95271C83.8798 13.4831 91.9543 19.7812 97.7053 27.8533ZM56.9884 6.8037C60.4868 6.8037 63.9056 7.16739 67.2008 7.85041C82.3868 -0.736176 96.2388 -3.23764 103.933 5.21589C108.881 10.6535 107.176 20.3134 101.38 31.6321V31.6232L101.354 31.6853C101.168 32.049 100.983 32.4038 100.788 32.7764L100.833 32.8651C88.4117 60.4433 64.2678 83.8346 36.0602 100.573L34.1962 101.744L34.152 101.717C21.3777 109.248 10.3526 111.723 4.60155 105.434C-3.19907 96.9008 -0.46046 82.6992 8.04689 67.4332C7.34899 64.0624 6.97795 60.5852 6.97795 57.0193C6.97795 29.2814 29.3638 6.8037 56.9884 6.8037ZM104.79 42.2234C106.222 46.8981 106.999 51.8656 106.999 57.0193C106.999 84.7483 84.613 107.235 56.9884 107.235C51.8116 107.235 46.8203 106.445 42.1293 104.982C69.9659 88.3408 91.0973 67.584 104.782 42.25L104.79 42.2234Z" fill="url(#paint0_linear)"/>
</g>
<defs>
<linearGradient id="paint0_linear" x1="-0.00719955" y1="85.7888" x2="112.744" y2="63.3794" gradientUnits="userSpaceOnUse">
<stop stop-color="#256EFF"/>
<stop offset="1" stop-color="#3DDC97"/>
</linearGradient>
<clipPath id="clip0">
<rect width="107" height="109" fill="white"/>
</clipPath>
</defs>
</svg>
