<svg width="123" height="105" viewBox="0 0 123 105" fill="none" xmlns="http://www.w3.org/2000/svg">
<g clip-path="url(#clip0)">
<path fill-rule="evenodd" clip-rule="evenodd" d="M78.35 78.21C60.02 78.21 72.09 79.65 74.58 59.73C78.31 29.94 106.64 29.94 110.82 59.73C113.5 78.9 124.99 78.21 107.05 78.21H99.9C99.87 83.09 99.11 85.58 104.17 88.32C109.22 91.05 122.88 92.46 122.88 99.39V103.83C122.88 104.19 122.59 104.48 122.23 104.48C81.49 104.48 40.74 104.48 0 104.48V91.63C5.43 89.21 22.67 84.66 24.01 77.87C24.37 76.05 20.17 69.96 19.06 66.73C17.34 63.98 16.28 58.74 18.33 55.78C19.55 54.01 19.03 49.88 19.03 47.63C19.03 29.83 50.2 29.84 50.2 47.63C50.2 49.42 49.84 54.15 50.68 55.45C52.8 58.72 52.11 63.63 50.17 66.73C49.26 69.8 45.31 76.19 45.51 77.87C46.94 89.98 61.88 83.98 68.22 93.05C72.42 91.26 78 90.22 81.74 87.98C86.19 85.32 85.43 82.64 85.4 78.21H78.35ZM52.4 0H41.01C39.26 0 37.77 0.62 36.52 1.85C35.28 3.08 34.67 4.58 34.67 6.34V17.45C34.67 19.21 35.29 20.71 36.52 21.94C37.75 23.17 39.25 23.79 41.01 23.79H45.9C45.54 25.19 45.09 26.52 44.53 27.76C43.98 29.02 43.05 30.22 41.76 31.37C44.23 30.73 46.43 29.76 48.37 28.49C50.3 27.23 51.98 25.65 53.36 23.79H57.55C59.3 23.79 60.79 23.16 62.04 21.94C63.28 20.71 63.89 19.21 63.89 17.45V6.33C63.89 4.58 63.27 3.09 62.04 1.84C60.82 0.6 59.32 0 57.56 0H52.4ZM85.71 12.76V23.87C85.71 24.88 85.53 25.83 85.16 26.71C84.8 27.59 84.27 28.39 83.54 29.1C83.23 29.41 82.9 29.69 82.56 29.92C82.21 30.17 81.85 30.38 81.48 30.56C81.47 30.57 81.44 30.57 81.42 30.59C80.94 30.81 80.46 30.97 79.95 31.08C79.42 31.19 78.87 31.25 78.31 31.25H74.82C74.89 31.47 74.96 31.7 75.04 31.92C75.25 32.54 75.5 33.15 75.77 33.75V33.76C76.01 34.32 76.34 34.85 76.75 35.38C77.17 35.93 77.67 36.46 78.27 37C78.7 37.38 78.75 38.03 78.35 38.47C78.08 38.78 77.68 38.89 77.32 38.79C76.03 38.45 74.8 38.04 73.66 37.53C72.51 37.03 71.42 36.44 70.4 35.77C69.39 35.11 68.44 34.36 67.56 33.53C66.82 32.83 66.12 32.06 65.46 31.25H61.8C61.11 31.25 60.44 31.17 59.81 31C59.18 30.83 58.58 30.57 58.01 30.22C57.52 29.93 57.37 29.28 57.66 28.79C57.95 28.3 58.6 28.15 59.09 28.44C59.48 28.68 59.9 28.86 60.36 28.99C60.81 29.12 61.3 29.17 61.8 29.17H65.98C66.3 29.17 66.61 29.31 66.82 29.59C67.48 30.47 68.2 31.28 69 32.02C69.78 32.76 70.64 33.43 71.56 34.03C72.44 34.6 73.38 35.12 74.37 35.57C74.17 35.25 74.02 34.93 73.87 34.61C73.59 33.97 73.32 33.31 73.09 32.61C72.87 31.95 72.66 31.27 72.47 30.58C72.43 30.47 72.41 30.34 72.41 30.22C72.41 29.65 72.87 29.17 73.46 29.17H78.32C78.74 29.17 79.13 29.13 79.51 29.04C79.87 28.96 80.21 28.84 80.53 28.7C80.54 28.69 80.56 28.69 80.57 28.67C80.84 28.54 81.1 28.39 81.34 28.22C81.59 28.04 81.83 27.84 82.05 27.6C82.57 27.08 82.96 26.51 83.21 25.89C83.46 25.27 83.59 24.59 83.59 23.85V12.78C83.59 12.04 83.46 11.35 83.21 10.74C82.96 10.13 82.57 9.55 82.05 9.03C81.53 8.51 80.96 8.12 80.34 7.87C79.72 7.62 79.04 7.49 78.3 7.49H70.92C70.35 7.49 69.87 7.03 69.87 6.44C69.87 5.87 70.33 5.39 70.92 5.39H78.3C79.31 5.39 80.24 5.57 81.12 5.94C82 6.3 82.78 6.83 83.51 7.55C84.22 8.26 84.77 9.06 85.12 9.94C85.48 10.82 85.67 11.76 85.67 12.76H85.71Z" fill="url(#paint0_linear)"/>
</g>
<defs>
<linearGradient id="paint0_linear" x1="2.98777e-06" y1="82.2212" x2="127.369" y2="51.8899" gradientUnits="userSpaceOnUse">
<stop stop-color="#256EFF"/>
<stop offset="1" stop-color="#3DDC97"/>
</linearGradient>
<clipPath id="clip0">
<rect width="122.88" height="104.48" fill="white"/>
</clipPath>
</defs>
</svg>
