<svg width="122" height="123" viewBox="0 0 122 123" fill="none" xmlns="http://www.w3.org/2000/svg">
<g clip-path="url(#clip0)">
<path d="M48.85 58.41L44.63 59.31C43.21 59.61 41.81 58.74 41.45 57.34L39.82 51.53L20.74 56.68L20.84 57.05C21.08 57.93 20.95 58.83 20.54 59.56C20.13 60.31 19.44 60.91 18.57 61.18C15.41 62.16 11.83 63.11 8.77003 64.23C8.60003 64.28 8.42002 64.32 8.25002 64.33C7.52002 64.43 6.81002 64.28 6.20002 63.95C5.47002 63.55 4.88002 62.86 4.61002 61.99L4.60002 61.97V61.96C4.57002 61.87 4.55002 61.79 4.54002 61.7L0.120025 45.62C-0.119975 44.74 0.0100245 43.85 0.420025 43.11V43.1C0.830024 42.36 1.51002 41.76 2.39002 41.49L12.14 38.46C12.29 38.41 12.44 38.38 12.59 38.36C13.35 38.23 14.1 38.37 14.74 38.72C15.48 39.13 16.07 39.81 16.34 40.67C16.35 40.71 16.36 40.75 16.38 40.8L35.4 35.8L33.96 30.68C33.56 29.27 34.37 27.8 35.76 27.37L79.85 13.65L79.49 12.38C79.05 11.01 79.77 9.51996 81.14 9.01996L105.15 0.14996L105.32 0.0999602C106.75 -0.32004 108.25 0.49996 108.67 1.92996L121.2 44.17C121.26 44.33 121.3 44.51 121.33 44.69C121.55 46.17 120.52 47.54 119.04 47.76L93.02 51.59C91.69 51.78 90.4 50.97 90.03 49.64L89.85 49L71.48 53.19C71.96 55.81 71.5 58.43 70.33 60.67C69.86 61.56 69.28 62.39 68.59 63.14L96.3 118.68C96.97 120.02 96.42 121.64 95.08 122.31C93.74 122.98 92.12 122.43 91.45 121.09L75.76 89.65H62.61L63.1 120.14C63.12 121.63 61.93 122.86 60.44 122.88C58.95 122.9 57.72 121.71 57.7 120.22L57.21 89.64H43.71L28.69 120.16C28.03 121.5 26.41 122.05 25.07 121.39C23.73 120.73 23.18 119.11 23.84 117.77L39.52 85.91C39.57 85.79 39.63 85.67 39.69 85.56L51 62.58C50.09 61.46 49.38 60.16 48.93 58.71L48.92 58.68C48.9 58.59 48.87 58.5 48.85 58.41ZM73.06 84.23L64.05 66.17C63.87 66.24 63.68 66.3 63.49 66.36H63.47C63.06 66.49 62.65 66.59 62.24 66.67L62.52 84.23H73.06ZM57.12 84.23L56.84 66.43C56.34 66.29 55.86 66.11 55.39 65.91L46.37 84.23H57.12ZM63.59 60.36C63.64 60.32 63.69 60.28 63.75 60.25C64.51 59.69 65.12 58.97 65.55 58.15C66.29 56.74 66.49 55.05 65.98 53.41C65.47 51.77 64.34 50.49 62.93 49.75C61.56 49.03 59.92 48.82 58.32 49.28C58.23 49.31 58.14 49.34 58.05 49.36C56.47 49.89 55.24 50.99 54.52 52.36C53.8 53.73 53.59 55.37 54.05 56.97C54.08 57.06 54.11 57.15 54.13 57.24C54.66 58.82 55.76 60.05 57.13 60.77C58.5 61.49 60.14 61.7 61.74 61.24C61.83 61.21 61.92 61.18 62.01 61.16C62.59 60.96 63.12 60.69 63.59 60.36ZM69.25 48.16L88.33 43.81L81.24 18.89L39.87 31.75L41.31 36.86C41.32 36.9 41.34 36.95 41.35 36.99L41.6 37.89L45.98 53.49L48.65 52.92C48.87 51.84 49.24 50.8 49.75 49.84C51.13 47.21 53.52 45.1 56.59 44.15H56.61C59.67 43.2 62.83 43.58 65.46 44.97C66.91 45.74 68.22 46.82 69.25 48.16ZM14.8 56.36C14.65 56.12 14.53 55.86 14.45 55.57L11.55 44.85H11.56L11.55 44.83C11.53 44.74 11.51 44.65 11.49 44.56L6.12002 46.23L9.39003 58.13L14.82 56.44L14.8 56.36ZM17.79 46L19.29 51.47L38.33 46.33L36.89 41.15L36.86 41L17.79 46Z" fill="url(#paint0_linear)"/>
</g>
<defs>
<linearGradient id="paint0_linear" x1="2.9508e-06" y1="96.6992" x2="127.816" y2="71.1415" gradientUnits="userSpaceOnUse">
<stop stop-color="#256EFF"/>
<stop offset="1" stop-color="#3DDC97"/>
</linearGradient>
<clipPath id="clip0">
<rect width="121.35" height="122.88" fill="white"/>
</clipPath>
</defs>
</svg>
